<svg width="495" height="79" viewBox="0 0 495 79" fill="none" xmlns="http://www.w3.org/2000/svg">
<path d="M64.6484 3.54165V48.4043C64.6484 62.4441 56.788 79 32.3242 79C7.86036 79 0 62.4441 0 48.4043V3.54165C0 2.73817 0.650184 2.08798 1.45366 2.08798H19.5108C20.3143 2.08798 20.9645 2.73817 20.9645 3.54165V48.8008C20.9698 54.4569 23.7291 61.1331 32.3348 61.1331C40.9404 61.1331 43.6945 54.4569 43.6945 48.8008V3.54165C43.6945 2.73817 44.3447 2.08798 45.1481 2.08798H63.2C64.0088 2.08798 64.6589 2.73817 64.6537 3.54165H64.6484Z" fill="white"/>
<path d="M147.544 76.8063C146.741 76.8063 146.085 76.394 146.085 75.8759V30.0723C146.085 29.5543 146.735 29.142 147.544 29.142H165.601C166.405 29.142 167.06 29.5543 167.06 30.0723V75.8759C167.055 76.394 166.405 76.8063 165.601 76.8063H147.544Z" fill="white"/>
<path d="M280.705 1.05721C280.922 0.465173 281.493 0.0740051 282.122 0.0740051H301.152C301.992 0.0740051 302.663 0.755905 302.663 1.58581V2.07213C302.663 2.24657 302.632 2.4263 302.573 2.59545L275.149 76.6054C274.933 77.1975 274.362 77.5886 273.733 77.5886H254.64C254.011 77.5886 253.445 77.1922 253.223 76.6054L225.794 2.59016C225.735 2.42101 225.704 2.24657 225.704 2.06685V1.58053C225.704 0.745333 226.375 0.0740051 227.216 0.0740051H246.245C246.874 0.0740051 247.44 0.470459 247.662 1.05721L264.186 45.5287L280.705 1.05721Z" fill="white"/>
<path d="M305.867 75.5587V1.60692C305.867 0.771724 306.538 0.105682 307.368 0.105682H352.59C353.415 0.105682 354.091 0.777011 354.091 1.60692V16.9629C354.091 17.7875 353.42 18.4641 352.59 18.4641H327.465V29.4062H349.165C349.989 29.4062 350.666 30.0776 350.666 30.9075V46.2635C350.666 47.0881 349.994 47.7647 349.165 47.7647H327.465V58.7068H352.59C353.415 58.7068 354.091 59.3781 354.091 60.2081V75.5535C354.091 76.3781 353.42 77.0547 352.59 77.0547H307.368C306.543 77.0547 305.867 76.3834 305.867 75.5535V75.5587Z" fill="white"/>
<path d="M409.69 1.16296H428.17C429 1.16296 429.661 1.83429 429.661 2.65363V76.0927C429.661 76.9226 428.989 77.5834 428.17 77.5834H409.077C408.538 77.5834 408.041 77.2979 407.776 76.8275L383.809 34.4862V76.098C383.809 76.9279 383.138 77.5887 382.319 77.5887H363.844C363.014 77.5887 362.353 76.9173 362.353 76.098V2.65363C362.353 1.82372 363.019 1.16296 363.844 1.16296H382.98C383.492 1.16296 383.973 1.42727 384.243 1.86601L408.205 40.4542V2.65363C408.205 1.82372 408.871 1.16296 409.69 1.16296Z" fill="white"/>
<path d="M494.372 17.4651C494.372 18.2897 493.701 18.9664 492.871 18.9664H475.982V76.0821C475.982 76.9067 475.311 77.5834 474.481 77.5834H455.879C455.055 77.5834 454.378 76.912 454.378 76.0821V18.9611H437.489C436.665 18.9611 435.988 18.295 435.988 17.4598V2.13558C435.988 1.30038 436.659 0.634338 437.489 0.634338H492.876C493.696 0.634338 494.372 1.30567 494.372 2.13558V17.4651Z" fill="white"/>
<path d="M73.8884 75.4531V30.5956C73.8884 16.5559 81.7487 0 106.213 0C130.676 0 138.537 16.5559 138.537 30.5956V75.4583C138.537 76.2618 137.887 76.912 137.083 76.912H119.026C118.222 76.912 117.572 76.2618 117.572 75.4583V30.1939C117.567 24.5378 114.808 17.8616 106.202 17.8616C97.5963 17.8616 94.8423 24.5378 94.8423 30.1939V75.4531C94.8423 76.2565 94.1921 76.9067 93.3886 76.9067H75.3368C74.528 76.9067 73.8778 76.2565 73.8831 75.4531H73.8884Z" fill="white"/>
<path d="M147.956 23.3855C147.153 23.3855 146.498 23.1952 146.498 22.9573V1.87653C146.498 1.63866 147.148 1.44836 147.956 1.44836H166.014C166.817 1.44836 167.473 1.63866 167.473 1.87653V22.9573C167.467 23.1952 166.817 23.3855 166.014 23.3855H147.956Z" fill="white"/>
<path d="M174.439 76.2988V2.14086C174.439 1.30567 175.116 0.634338 175.967 0.634338H221.85C222.691 0.634338 223.378 1.30567 223.378 2.14086V17.5391C223.378 18.369 222.701 19.0456 221.85 19.0456H196.355V30.0195H218.372C219.212 30.0195 219.899 30.6908 219.899 31.526V46.9243C219.899 47.7542 219.223 48.4308 218.372 48.4308H196.355V59.4046H221.85C222.691 59.4046 223.378 60.076 223.378 60.9112V76.2988C223.378 77.1287 222.701 77.8054 221.85 77.8054H175.967C175.127 77.8054 174.439 77.134 174.439 76.2988Z" fill="white"/>
</svg>
