<svg width="287" height="207" viewBox="0 0 287 207" fill="none" xmlns="http://www.w3.org/2000/svg">
<path d="M56.7057 71.823V111.195C56.7057 123.516 49.811 138.045 28.3528 138.045C6.89463 138.045 0 123.516 0 111.195V71.823C0 71.1179 0.570302 70.5472 1.27507 70.5472H17.1137C17.8185 70.5472 18.3888 71.1179 18.3888 71.823V111.542C18.3934 116.506 20.8137 122.365 28.3621 122.365C35.9105 122.365 38.3262 116.506 38.3262 111.542V71.823C38.3262 71.1179 38.8965 70.5472 39.6012 70.5472H55.4352C56.1446 70.5472 56.7149 71.1179 56.7103 71.823H56.7057Z" fill="white"/>
<path d="M129.417 136.12C128.712 136.12 128.137 135.758 128.137 135.304V95.1063C128.137 94.6517 128.707 94.2899 129.417 94.2899H145.256C145.96 94.2899 146.535 94.6517 146.535 95.1063V135.304C146.531 135.758 145.96 136.12 145.256 136.12H129.417Z" fill="white"/>
<path d="M85.128 148.562C85.295 148.112 85.7262 147.811 86.2037 147.811H100.693C101.333 147.811 101.848 148.33 101.848 148.966V149.337C101.848 149.467 101.824 149.606 101.778 149.736L80.8995 206.109C80.7325 206.559 80.3013 206.861 79.8238 206.861H65.288C64.8104 206.861 64.3793 206.559 64.2123 206.109L43.3291 149.731C43.2827 149.606 43.2595 149.471 43.2595 149.332V148.961C43.2595 148.325 43.7742 147.815 44.414 147.815H58.9034C59.381 147.815 59.8122 148.117 59.9791 148.567L72.5582 182.441L85.1327 148.567L85.128 148.562Z" fill="white"/>
<path d="M104.871 205.706V148.966C104.871 148.325 105.385 147.811 106.025 147.811H140.702C141.337 147.811 141.857 148.325 141.857 148.966V160.744C141.857 161.38 141.342 161.899 140.702 161.899H121.437V170.296H138.073C138.709 170.296 139.228 170.811 139.228 171.451V183.23C139.228 183.865 138.713 184.38 138.073 184.38H121.437V192.777H140.702C141.337 192.777 141.857 193.292 141.857 193.932V205.706C141.857 206.341 141.342 206.861 140.702 206.861H106.025C105.39 206.861 104.871 206.346 104.871 205.706Z" fill="white"/>
<path d="M187.69 147.811H201.961C202.601 147.811 203.116 148.33 203.116 148.966V205.697C203.116 206.337 202.596 206.852 201.961 206.852H187.221C186.809 206.852 186.419 206.634 186.22 206.267L167.715 173.557V205.701C167.715 206.341 167.196 206.856 166.561 206.856H152.299C151.659 206.856 151.144 206.337 151.144 205.701V148.961C151.144 148.321 151.659 147.806 152.299 147.806H167.075C167.474 147.806 167.84 148.01 168.049 148.349L186.549 178.159V148.961C186.549 148.321 187.064 147.806 187.694 147.806L187.69 147.811Z" fill="white"/>
<path d="M254.044 160.73C254.044 161.366 253.529 161.885 252.89 161.885H239.94V205.706C239.94 206.341 239.425 206.861 238.785 206.861H224.523C223.888 206.861 223.368 206.346 223.368 205.706V161.876H210.418C209.783 161.876 209.264 161.361 209.264 160.726V148.97C209.264 148.33 209.778 147.815 210.418 147.815H252.89C253.516 147.815 254.035 148.33 254.035 148.97V160.735L254.044 160.73Z" fill="white"/>
<path d="M64.8106 134.933V95.561C64.8106 83.2397 71.7052 68.7102 93.1634 68.7102C114.622 68.7102 121.516 83.2397 121.516 95.561V134.933C121.516 135.638 120.946 136.208 120.241 136.208H104.403C103.698 136.208 103.127 135.638 103.127 134.933V95.213C103.123 90.2493 100.703 84.3902 93.1541 84.3902C85.6057 84.3902 83.1901 90.2493 83.1901 95.213V134.933C83.1901 135.638 82.6198 136.208 81.915 136.208H66.081C65.3716 136.208 64.8013 135.638 64.8059 134.933H64.8106Z" fill="white"/>
<path d="M129.778 89.238C129.074 89.238 128.499 89.0709 128.499 88.8622V70.3617C128.499 70.1529 129.069 69.9859 129.778 69.9859H145.617C146.322 69.9859 146.897 70.1529 146.897 70.3617V88.8622C146.892 89.0709 146.322 89.238 145.617 89.238H129.778Z" fill="white"/>
<path d="M2.78198 205.845V149.105C2.78198 148.465 3.29665 147.95 3.9365 147.95H38.6137C39.2489 147.95 39.7682 148.465 39.7682 149.105V160.883C39.7682 161.519 39.2535 162.038 38.6137 162.038H19.3486V170.435H35.9847C36.6199 170.435 37.1392 170.95 37.1392 171.59V183.369C37.1392 184.004 36.6246 184.519 35.9847 184.519H19.3486V192.916H38.6137C39.2489 192.916 39.7682 193.431 39.7682 194.071V205.845C39.7682 206.48 39.2535 207 38.6137 207H3.9365C3.30128 207 2.78198 206.485 2.78198 205.845Z" fill="white"/>
<path fill-rule="evenodd" clip-rule="evenodd" d="M245.527 7.39129H245.48V7.37737C245.276 7.32634 245.072 7.29387 244.859 7.27067L230.88 5.92535L231.965 6.3475C234.329 7.24748 235.516 9.91029 234.612 12.2716L234.529 12.4942V12.5267H234.519C234.394 12.8654 234.283 13.2087 234.186 13.5519C233.801 14.9019 233.62 16.2704 233.62 17.6204C233.62 18.4415 233.69 19.258 233.819 20.0605H233.847V20.1997C234.135 21.8326 234.691 23.4053 235.489 24.8527H235.558V24.9733C235.665 25.1635 235.776 25.349 235.892 25.5346H235.897V25.5485C236.193 26.0171 236.509 26.4717 236.856 26.9031H236.926V26.9959C237.603 27.8402 238.382 28.6149 239.244 29.3015H239.318V29.3665C239.935 29.8489 240.593 30.285 241.289 30.6747H241.372V30.721C241.558 30.8231 241.748 30.9205 241.938 31.0133H242.059V31.0736C242.263 31.171 242.476 31.2685 242.685 31.3566H242.745V31.3798C242.898 31.4447 243.055 31.5097 243.213 31.57C243.691 31.7556 244.168 31.9086 244.65 32.0432H245.137V32.1638C245.508 32.2519 245.875 32.3262 246.245 32.3865H246.505V32.4236L246.895 32.4746L248.847 12.1231C249.06 9.91493 247.609 7.92014 245.527 7.39129ZM188.58 43.1259L197.25 20.478C190.921 16.7436 186.98 9.57164 187.731 1.77804L169.477 0.0198428C168.35 -0.0868553 167.279 0.242518 166.426 0.868789V0.882706H166.408C165.434 1.6064 164.757 2.72441 164.637 4.0187L164.377 6.70007L164.052 10.0819L162.666 24.5047L160.955 42.3094L159.244 60.1187L154.775 106.63L154.793 106.681L159.24 117.982H159.244L159.587 118.858L187.337 46.3685L183.721 46.016L184.041 42.6898L188.58 43.1259ZM170.423 44.7402L163.774 44.0954L164.094 40.7739L170.743 41.4094L170.423 44.7402ZM180.396 45.7005L173.748 45.0603L174.063 41.7295L180.109 42.314H180.118L180.712 42.3697L180.396 45.7005Z" fill="white"/>
<path fill-rule="evenodd" clip-rule="evenodd" d="M286.593 34.0936H286.547V33.9498C286.403 33.5137 286.194 33.1009 285.926 32.7251H285.861V32.637C285.596 32.2798 285.272 31.9643 284.901 31.6999H284.836V31.6535C284.553 31.4633 284.247 31.2963 283.918 31.171L266.79 24.6021C262.933 34.6781 251.642 39.7161 241.576 35.8611C231.506 31.9968 226.47 20.7053 230.328 10.6293L213.205 4.06972C213.103 4.0326 213.001 3.99549 212.904 3.96302H212.625V3.88879C211.935 3.72643 211.234 3.74034 210.576 3.90271V3.96302H210.34C210.066 4.04652 209.802 4.15786 209.547 4.29239V4.30631H209.514C208.842 4.66815 208.253 5.20628 207.836 5.88358V6.01811H207.757C207.646 6.21295 207.548 6.41707 207.465 6.63047L205.29 12.3179L162.406 126.021L163.691 129.282L164.437 131.175H250.395L263.962 95.728L272.178 74.2399L270.806 73.7157L272.006 70.5936L273.374 71.1179L286.473 36.9049L286.547 36.7054V36.492H286.612C286.83 35.6895 286.811 34.8591 286.593 34.0936ZM234.575 56.2497L240.811 58.6388L239.615 61.7609L233.379 59.3718L234.575 56.2497ZM225.223 52.6637L231.455 55.0528L230.258 58.1749L224.022 55.7858L225.223 52.6637ZM215.862 49.0731L222.103 51.4669L220.906 54.5936L214.666 52.1998L215.862 49.0731ZM206.505 45.4918L207.15 45.7376H207.154L212.741 47.8809L211.545 51.0029L205.314 48.6138L206.505 45.4918ZM197.148 41.9011L203.389 44.2949L202.193 47.417L195.952 45.0232L197.148 41.9011ZM244.085 96.4192C243.501 96.9017 242.791 96.7718 242.128 96.7718C239.995 96.7857 237.872 96.5491 235.739 96.5677C235.572 96.5677 235.085 96.5445 234.988 96.6651L233.476 100.228C233.425 100.534 233.754 100.724 233.884 100.938C235.799 104.213 233.741 108.68 230.045 109.135L227.667 121.076C227.449 122.013 226.642 122.537 225.849 122.518C224.175 121.549 221.62 121.085 220.053 120.046C219.808 119.888 219.571 119.41 219.534 119.09C219.427 118.223 219.965 117.578 220.424 116.887C221.797 114.804 223.368 112.772 224.792 110.717C225.469 109.743 226.132 108.741 226.786 107.743C224.342 104.658 226.874 99.2258 230.773 99.2722L231.928 96.5537C231.798 96.4749 231.654 96.4656 231.506 96.4517C226.605 96.0063 221.268 96.4702 216.321 96.0991C215.278 96.0202 215.115 95.9878 214.322 95.278C210.585 91.9286 207.15 87.8973 203.445 84.469L203.134 84.2835L200.403 90.6946C202.022 94.2157 204.511 97.1336 207.46 99.2815C211.619 102.311 216.599 104.027 221.792 104.199C222.84 104.231 224.282 103.716 224.741 105.025C225.028 105.85 224.579 106.903 223.818 107.316C223.1 107.701 219.46 107.428 218.556 107.316C210.465 106.31 201.465 100.947 197.9 92.8379C197.57 92.0863 197.167 91.2281 197.473 90.3096C198.345 87.7024 199.926 84.9654 200.872 82.3397L200.913 82.015L195.071 76.2069C194.343 75.1724 195.016 73.5719 196.268 73.3863L224.388 74.1843C231.251 80.6093 237.853 87.3963 244.581 94.0069C245.003 94.8466 244.892 95.7512 244.085 96.4192ZM248.976 65.3515L242.74 62.9624L243.932 59.8357L250.173 62.2294L248.976 65.3515ZM258.328 68.9329L252.097 66.5438L253.288 63.4217L259.529 65.8108L258.328 68.9329ZM267.685 72.5235L261.453 70.1344L262.645 67.0077L268.886 69.4014L267.685 72.5235ZM201.307 76.8239L200.556 76.9352L211.935 88.1803L216.576 92.7636L228.316 93.0049C228.376 92.8657 227.824 92.5642 227.704 92.476C225.181 90.741 222.576 89.1173 220.076 87.3406C219.692 87.0669 218.848 86.5334 218.583 86.1901C217.948 85.3551 218.611 83.7221 219.627 83.4624C220.285 83.2907 220.749 83.6804 221.263 83.9958C225.956 86.8813 230.282 90.5833 235.076 93.2554C236.272 93.1023 237.714 93.492 238.869 93.325C238.975 93.3111 238.998 93.4409 239.068 93.1719L223.03 77.3991L201.307 76.8239ZM230.773 102.626C228.659 102.009 227.954 105.864 230.045 105.832C231.747 105.809 232.257 103.058 230.773 102.626ZM223.368 117.801L225.172 118.566C225.46 117.337 225.728 116.093 225.946 114.855C225.997 114.572 226.137 114.113 226.007 113.876L223.368 117.801Z" fill="white"/>
</svg>
