<svg width="281" height="291" viewBox="0 0 281 291" fill="none" xmlns="http://www.w3.org/2000/svg">
<path d="M238.785 0H41.7008C18.7914 0 0.219727 18.5873 0.219727 41.516V249.481C0.219727 272.41 18.7914 290.997 41.7008 290.997H238.785C261.694 290.997 280.266 272.41 280.266 249.481V41.516C280.266 18.5873 261.694 0 238.785 0Z" fill="#F56F22"/>
<path fill-rule="evenodd" clip-rule="evenodd" d="M51.3318 269.587V266.401L43.8173 247.304L43.7795 247.221L51.3318 168.576L54.2215 138.47L57.1111 108.364L59.4575 83.9659L60.0083 78.2573L60.4459 73.7191C60.6572 71.5293 61.7964 69.6415 63.4412 68.4182H63.4789V68.388C64.9124 67.3309 66.7307 66.7721 68.632 66.9533L99.4825 69.9209C98.215 83.0976 104.877 95.2247 115.575 101.537L100.916 139.829L93.243 139.097L92.6997 144.722L98.8185 145.311L51.9052 267.873L51.3243 266.401V269.58L51.3318 269.587ZM199.488 121.82L202.793 87.4092C203.155 83.679 200.695 80.3037 197.18 79.4126H197.104V79.39C196.765 79.3069 196.41 79.2465 196.048 79.2163L172.425 76.9434L174.259 77.6532C178.25 79.1785 180.257 83.679 178.733 87.6735L178.597 88.0511V88.1039H178.574C178.363 88.6778 178.182 89.2593 178.016 89.8407C176.975 93.5181 176.801 97.2635 177.397 100.843H177.435V101.084C177.918 103.848 178.861 106.506 180.211 108.945H180.325V109.149C180.506 109.474 180.694 109.791 180.89 110.1H180.905V110.123C181.403 110.916 181.939 111.679 182.52 112.419H182.641V112.57C183.788 113.997 185.1 115.311 186.557 116.473H186.685V116.579C187.718 117.395 188.835 118.135 190.012 118.792H190.155V118.875C190.465 119.048 190.789 119.215 191.114 119.373H191.317V119.471C191.664 119.637 192.019 119.796 192.381 119.955H192.479V119.992C192.743 120.106 193.007 120.211 193.279 120.317C194.086 120.627 194.893 120.891 195.708 121.11H196.531V121.321C197.157 121.472 197.776 121.593 198.402 121.691H198.839V121.759L199.496 121.842L199.488 121.82ZM70.2315 142.563L70.7747 136.929L59.533 135.85L58.9898 141.468L70.2315 142.555V142.563ZM87.0864 144.186L87.6221 138.56L86.6111 138.462H86.596L76.3804 137.481L75.8448 143.106L87.0789 144.186H87.0864Z" fill="white"/>
<path fill-rule="evenodd" clip-rule="evenodd" d="M58.8539 285.505L60.1139 288.707H205.411L228.339 228.766L242.237 192.438L239.921 191.554L241.943 186.276L244.259 187.159L266.403 129.318L266.523 128.978V128.623H266.629C267.006 127.264 266.968 125.859 266.599 124.568H266.523V124.319C266.282 123.579 265.935 122.884 265.482 122.25H265.369V122.099C264.916 121.495 264.373 120.959 263.747 120.513H263.634V120.438C263.158 120.113 262.645 119.834 262.087 119.622L233.138 108.515C226.619 125.55 207.538 134.068 190.517 127.543C173.496 121.012 164.986 101.922 171.505 84.8796L142.563 73.787C142.397 73.7266 142.223 73.6662 142.057 73.6134H141.597V73.485C140.428 73.2132 139.243 73.2283 138.127 73.5001V73.6058H137.727C137.267 73.7493 136.814 73.9305 136.391 74.157V74.1873H136.339C135.199 74.7989 134.203 75.705 133.502 76.8528V77.0793H133.366C133.177 77.404 133.019 77.7514 132.876 78.1138L129.194 87.7264L56.7112 279.978L58.8841 285.49L58.8539 285.505ZM226.106 180.205L236.654 184.252L234.632 189.53L224.092 185.491L226.114 180.205H226.106ZM210.292 174.149L220.84 178.189L218.818 183.467L208.278 179.427L210.3 174.149H210.292ZM194.478 168.085L205.026 172.125L203.004 177.403L192.456 173.364L194.471 168.085H194.478ZM178.665 162.022L189.205 166.062L187.183 171.34L176.643 167.3L178.665 162.022ZM162.851 155.958L173.391 159.998L171.369 165.276L160.829 161.236L162.851 155.958ZM147.029 149.887L157.577 153.935L155.555 159.213L145.007 155.165L147.029 149.887ZM131.216 143.831L132.302 144.246L141.748 147.871L139.726 153.149L129.186 149.109L131.208 143.831H131.216ZM115.402 137.76L125.949 141.807L123.927 147.086L113.38 143.038L115.402 137.76Z" fill="white"/>
<path d="M120.91 220.256C123.648 226.214 127.851 231.145 132.83 234.777C139.862 239.896 148.274 242.796 157.057 243.083C158.83 243.143 161.259 242.267 162.036 244.487C162.527 245.877 161.765 247.666 160.474 248.361C159.26 249.018 153.111 248.557 151.579 248.361C137.9 246.655 122.698 237.593 116.67 223.88C116.111 222.619 115.425 221.154 115.945 219.606C117.424 215.197 120.095 210.568 121.694 206.135L121.762 205.584L111.886 195.76C110.664 194.016 111.796 191.305 113.916 190.995L161.448 192.347C173.044 203.213 184.203 214.683 195.573 225.859C196.289 227.286 196.101 228.811 194.735 229.944C193.747 230.759 192.547 230.541 191.43 230.541C187.824 230.563 184.233 230.163 180.626 230.186C180.347 230.186 179.525 230.148 179.359 230.359L176.809 236.385C176.726 236.899 177.284 237.216 177.495 237.586C180.74 243.121 177.261 250.672 171.014 251.442L166.993 271.634C166.623 273.219 165.258 274.11 163.922 274.073C161.093 272.434 156.77 271.641 154.122 269.897C153.714 269.625 153.314 268.817 153.246 268.281C153.065 266.808 153.978 265.729 154.748 264.551C157.064 261.024 159.72 257.589 162.127 254.123C163.273 252.469 164.398 250.777 165.507 249.094C161.372 243.876 165.65 234.694 172.237 234.769L174.191 230.171C173.972 230.035 173.73 230.019 173.474 229.997C165.19 229.242 156.166 230.027 147.807 229.4C146.041 229.264 145.762 229.212 144.427 228.011C138.104 222.348 132.302 215.529 126.04 209.737L125.512 209.428L120.902 220.263L120.91 220.256ZM186.262 224.447L159.154 197.776L122.434 196.802L121.174 196.991L140.405 216.005L148.244 223.752L168.087 224.16C168.185 223.926 167.265 223.412 167.053 223.269C162.791 220.331 158.384 217.583 154.159 214.585C153.511 214.124 152.077 213.218 151.639 212.637C150.568 211.225 151.685 208.469 153.397 208.023C154.506 207.736 155.291 208.393 156.166 208.929C164.096 213.807 171.407 220.06 179.51 224.583C181.532 224.326 183.969 224.983 185.915 224.703C186.096 224.681 186.142 224.9 186.255 224.447H186.262ZM172.237 240.432C168.66 239.39 167.468 245.907 171.007 245.862C173.881 245.824 174.741 241.165 172.237 240.432ZM162.768 267.382C163.251 265.306 163.711 263.207 164.081 261.115C164.164 260.632 164.398 259.854 164.179 259.454L159.72 266.091L162.76 267.39L162.768 267.382Z" fill="#F56F22"/>
</svg>
