<svg width="295" height="430" viewBox="0 0 295 430" fill="none" xmlns="http://www.w3.org/2000/svg">
<path d="M270.366 0.643982H24.6336C11.0289 0.643982 0 11.6821 0 25.2984V405.346C0 418.962 11.0289 430 24.6336 430H270.366C283.971 430 295 418.962 295 405.346V25.2984C295 11.6821 283.971 0.643982 270.366 0.643982Z" fill="#232323"/>
<path d="M118.566 62.0647V126.151C118.566 146.207 107.347 169.857 72.4296 169.857C37.5125 169.857 26.2935 146.207 26.2935 126.151V62.0647C26.2935 60.9169 27.2215 59.9882 28.3683 59.9882H54.1412C55.288 59.9882 56.216 60.9169 56.216 62.0647V126.717C56.2235 134.797 60.1619 144.334 72.4447 144.334C84.7276 144.334 88.6584 134.797 88.6584 126.717V62.0647C88.6584 60.9169 89.5864 59.9882 90.7332 59.9882H116.499C117.653 59.9882 118.581 60.9169 118.573 62.0647H118.566Z" fill="#F56F22"/>
<path d="M233.11 401.63C231.964 401.63 231.028 398.95 231.028 395.612V99.3747C231.028 96.0371 231.956 93.3565 233.11 93.3565H258.883C260.03 93.3565 260.966 96.0371 260.966 99.3747V395.612C260.958 398.95 260.03 401.63 258.883 401.63H233.11Z" fill="#F56F22"/>
<path d="M127.974 159.504V95.418C127.974 75.3622 139.193 51.7122 174.11 51.7122C209.027 51.7122 220.247 75.3622 220.247 95.418V159.504C220.247 160.652 219.319 161.581 218.172 161.581H192.399C191.252 161.581 190.324 160.652 190.324 159.504V94.8516C190.316 86.772 186.378 77.2349 174.095 77.2349C161.812 77.2349 157.882 86.772 157.882 94.8516V159.504C157.882 160.652 156.954 161.581 155.807 161.581H130.041C128.887 161.581 127.959 160.652 127.967 159.504H127.974Z" fill="#F56F22"/>
<path d="M233.699 85.1182C232.552 85.1182 231.616 84.8464 231.616 84.5066V54.3928C231.616 54.053 232.544 53.7811 233.699 53.7811H259.472C260.619 53.7811 261.554 54.053 261.554 54.3928V84.5066C261.547 84.8464 260.619 85.1182 259.472 85.1182H233.699Z" fill="#F56F22"/>
<path d="M142.022 185.639C142.241 185.05 142.8 184.664 143.426 184.664H162.295C163.125 184.664 163.797 185.344 163.797 186.167V186.65C163.797 186.824 163.766 187.005 163.706 187.171L136.507 260.629C136.288 261.218 135.73 261.603 135.104 261.603H116.174C115.548 261.603 114.99 261.21 114.771 260.629L87.5644 187.164C87.5041 186.998 87.4739 186.824 87.4739 186.643V186.16C87.4739 185.337 88.1454 184.664 88.9753 184.664H107.845C108.471 184.664 109.029 185.057 109.248 185.639L125.635 229.775L142.015 185.639H142.022Z" fill="#F56F22"/>
<path d="M167.743 260.093V186.167C167.743 185.337 168.414 184.664 169.244 184.664H214.415C215.237 184.664 215.916 185.337 215.916 186.167V201.519C215.916 202.342 215.244 203.021 214.415 203.021H189.321V213.963H210.989C211.812 213.963 212.491 214.635 212.491 215.465V230.817C212.491 231.64 211.819 232.32 210.989 232.32H189.321V243.261H214.415C215.237 243.261 215.916 243.933 215.916 244.764V260.108C215.916 260.931 215.244 261.61 214.415 261.61H169.244C168.422 261.61 167.743 260.938 167.743 260.108V260.093Z" fill="#F56F22"/>
<path d="M102.805 283.441H129.046C130.223 283.441 131.166 284.392 131.166 285.562V389.926C131.166 391.104 130.215 392.048 129.046 392.048H101.937C101.175 392.048 100.466 391.648 100.096 390.976L66.0619 330.801V389.934C66.0619 391.112 65.1113 392.056 63.9418 392.056H37.7087C36.5317 392.056 35.5886 391.104 35.5886 389.934V285.555C35.5886 284.377 36.5317 283.433 37.7087 283.433H64.8849C65.6168 283.433 66.2958 283.803 66.673 284.43L100.692 339.266V285.547C100.692 284.369 101.635 283.425 102.805 283.425V283.441Z" fill="#F56F22"/>
<path d="M224.079 307.204C224.079 308.374 223.136 309.326 221.959 309.326H198.148V389.941C198.148 391.112 197.205 392.063 196.028 392.063H169.795C168.625 392.063 167.675 391.119 167.675 389.941V309.318H143.863C142.694 309.318 141.743 308.374 141.743 307.196V285.57C141.743 284.392 142.687 283.448 143.863 283.448H221.974C223.129 283.448 224.087 284.392 224.087 285.57V307.211L224.079 307.204Z" fill="#F56F22"/>
<path d="M34.0796 260.289V186.364C34.0796 185.533 34.7511 184.861 35.581 184.861H80.7515C81.5738 184.861 82.2529 185.533 82.2529 186.364V201.715C82.2529 202.538 81.5814 203.218 80.7515 203.218H55.6576V214.159H77.3261C78.1485 214.159 78.8275 214.831 78.8275 215.662V231.013C78.8275 231.836 78.1561 232.516 77.3261 232.516H55.6576V243.457H80.7515C81.5738 243.457 82.2529 244.129 82.2529 244.96V260.304C82.2529 261.127 81.5814 261.807 80.7515 261.807H35.581C34.7586 261.807 34.0796 261.135 34.0796 260.304V260.289Z" fill="#F56F22"/>
</svg>
