<svg width="500" height="361" viewBox="0 0 500 361" fill="none" xmlns="http://www.w3.org/2000/svg">
<path d="M98.6804 124.988V193.503C98.6804 214.945 86.6822 240.229 49.3402 240.229C11.9982 240.229 0 214.945 0 193.503V124.988C0 123.761 0.992452 122.768 2.2189 122.768H29.7816C31.0081 122.768 32.0005 123.761 32.0005 124.988V194.109C32.0086 202.747 36.2205 212.943 49.3563 212.943C62.4922 212.943 66.696 202.747 66.696 194.109V124.988C66.696 123.761 67.6885 122.768 68.9149 122.768H96.4696C97.7041 122.768 98.6965 123.761 98.6885 124.988H98.6804Z" fill="white"/>
<path d="M225.214 236.879C223.987 236.879 222.987 236.25 222.987 235.458V165.506C222.987 164.715 223.979 164.085 225.214 164.085H252.777C254.003 164.085 255.004 164.715 255.004 165.506V235.458C254.996 236.25 254.003 236.879 252.777 236.879H225.214Z" fill="white"/>
<path d="M148.142 258.531C148.432 257.748 149.182 257.223 150.013 257.223H175.228C176.342 257.223 177.237 258.127 177.237 259.233V259.879C177.237 260.105 177.197 260.347 177.116 260.573L140.783 358.676C140.492 359.459 139.742 359.984 138.911 359.984H113.615C112.784 359.984 112.034 359.459 111.744 358.676L75.4021 260.565C75.3214 260.347 75.281 260.113 75.281 259.871V259.225C75.281 258.119 76.1767 257.231 77.2901 257.231H102.505C103.336 257.231 104.086 257.756 104.377 258.539L126.267 317.488L148.15 258.539L148.142 258.531Z" fill="white"/>
<path d="M182.498 357.974V259.233C182.498 258.119 183.394 257.223 184.507 257.223H244.853C245.959 257.223 246.862 258.119 246.862 259.233V279.73C246.862 280.836 245.967 281.741 244.853 281.741H211.328V296.353H240.278C241.384 296.353 242.287 297.249 242.287 298.363V318.86C242.287 319.966 241.392 320.862 240.278 320.862H211.328V335.474H244.853C245.959 335.474 246.862 336.37 246.862 337.484V357.974C246.862 359.08 245.967 359.984 244.853 359.984H184.507C183.402 359.984 182.498 359.088 182.498 357.974Z" fill="white"/>
<path d="M326.622 257.223H351.457C352.571 257.223 353.466 258.127 353.466 259.233V357.958C353.466 359.072 352.563 359.968 351.457 359.968H325.807C325.089 359.968 324.411 359.588 324.064 358.95L291.862 302.028V357.966C291.862 359.08 290.958 359.976 289.853 359.976H265.033C263.92 359.976 263.024 359.072 263.024 357.966V259.225C263.024 258.111 263.92 257.215 265.033 257.215H290.748C291.442 257.215 292.079 257.57 292.443 258.159L324.637 310.036V259.225C324.637 258.111 325.532 257.215 326.63 257.215L326.622 257.223Z" fill="white"/>
<path d="M442.093 279.706C442.093 280.812 441.197 281.716 440.084 281.716H417.548V357.974C417.548 359.08 416.652 359.984 415.539 359.984H390.72C389.614 359.984 388.71 359.088 388.71 357.974V281.7H366.175C365.069 281.7 364.165 280.804 364.165 279.698V259.241C364.165 258.127 365.061 257.231 366.175 257.231H440.084C441.173 257.231 442.077 258.127 442.077 259.241V279.714L442.093 279.706Z" fill="white"/>
<path d="M112.785 234.813V166.297C112.785 144.855 124.783 119.571 162.125 119.571C199.467 119.571 211.465 144.855 211.465 166.297V234.813C211.465 236.04 210.473 237.033 209.246 237.033H181.683C180.457 237.033 179.465 236.04 179.465 234.813V165.692C179.456 157.054 175.245 146.858 162.109 146.858C148.973 146.858 144.769 157.054 144.769 165.692V234.813C144.769 236.04 143.777 237.033 142.55 237.033H114.995C113.761 237.033 112.769 236.04 112.777 234.813H112.785Z" fill="white"/>
<path d="M225.844 155.294C224.617 155.294 223.617 155.003 223.617 154.64V122.445C223.617 122.082 224.609 121.791 225.844 121.791H253.406C254.633 121.791 255.633 122.082 255.633 122.445V154.64C255.625 155.003 254.633 155.294 253.406 155.294H225.844Z" fill="white"/>
<path d="M4.84122 358.216V259.475C4.84122 258.361 5.73685 257.465 6.85034 257.465H67.1963C68.3017 257.465 69.2054 258.361 69.2054 259.475V279.972C69.2054 281.078 68.3097 281.983 67.1963 281.983H33.6708V296.595H62.6213C63.7267 296.595 64.6304 297.491 64.6304 298.605V319.102C64.6304 320.208 63.7348 321.104 62.6213 321.104H33.6708V335.716H67.1963C68.3017 335.716 69.2054 336.612 69.2054 337.726V358.216C69.2054 359.322 68.3097 360.226 67.1963 360.226H6.85034C5.74492 360.226 4.84122 359.33 4.84122 358.216Z" fill="white"/>
<path fill-rule="evenodd" clip-rule="evenodd" d="M427.271 12.8625H427.19V12.8383C426.835 12.7495 426.48 12.6929 426.109 12.6526L401.782 10.3114L403.67 11.0461C407.785 12.6122 409.85 17.2461 408.277 21.3552L408.132 21.7427V21.7993H408.116C407.898 22.3886 407.704 22.986 407.535 23.5834C406.865 25.9326 406.55 28.3141 406.55 30.6634C406.55 32.0923 406.671 33.5131 406.897 34.9098H406.946V35.1519C407.446 37.9936 408.414 40.7304 409.802 43.2491H409.923V43.459C410.109 43.79 410.302 44.1129 410.504 44.4359H410.512V44.4601C411.028 45.2754 411.577 46.0666 412.182 46.8174H412.303V46.9788C413.481 48.4481 414.837 49.7963 416.338 50.9911H416.467V51.1041C417.54 51.9437 418.686 52.7026 419.896 53.3807H420.041V53.4614C420.364 53.639 420.695 53.8086 421.026 53.97H421.235V54.075C421.59 54.2445 421.962 54.414 422.325 54.5674H422.43V54.6078C422.696 54.7208 422.97 54.8338 423.244 54.9388C424.076 55.2617 424.907 55.5281 425.746 55.7622H426.593V55.9721C427.238 56.1255 427.876 56.2547 428.521 56.3596H428.973V56.4242L429.651 56.513L433.048 21.0969C433.419 17.2542 430.894 13.7828 427.271 12.8625ZM328.171 75.0485L343.259 35.6363C332.245 29.1376 325.387 16.6568 326.694 3.09419L294.928 0.0345309C292.967 -0.151147 291.103 0.422035 289.618 1.51189V1.5361H289.586C287.892 2.79549 286.714 4.74107 286.504 6.99343L286.052 11.6596L285.487 17.5448L283.075 42.6437L280.097 73.6277L277.12 104.62L269.342 185.559L269.374 185.648L277.112 205.314H277.12L277.717 206.84L326.008 80.6915L319.715 80.078L320.272 74.2897L328.171 75.0485ZM296.574 77.8579L285.003 76.7358L285.56 70.9555L297.13 72.0615L296.574 77.8579ZM313.929 79.529L302.359 78.415L302.908 72.6186L313.429 73.6358H313.445L314.478 73.7327L313.929 79.529Z" fill="white"/>
<path fill-rule="evenodd" clip-rule="evenodd" d="M498.735 59.3304H498.655V59.0802C498.405 58.3213 498.042 57.6028 497.574 56.9489H497.461V56.7955C497.001 56.1739 496.436 55.6249 495.79 55.1648H495.677V55.084C495.185 54.7531 494.653 54.4624 494.08 54.2445L464.274 42.8131C457.561 60.3476 437.913 69.1149 420.396 62.4062C402.871 55.6815 394.108 36.0319 400.822 18.4974L371.024 7.08219C370.846 7.01761 370.669 6.95302 370.499 6.89651H370.015V6.76735C368.813 6.4848 367.595 6.50901 366.449 6.79157V6.89651H366.037C365.561 7.04183 365.101 7.23558 364.658 7.46969V7.49391H364.601C363.431 8.1236 362.406 9.06007 361.68 10.2387V10.4728H361.543C361.349 10.8119 361.18 11.1671 361.035 11.5385L357.251 21.4359L282.623 219.304L284.858 224.98L286.157 228.273H435.743L459.352 166.588L473.65 129.194L471.262 128.282L473.351 122.849L475.732 123.761L498.526 64.2227L498.655 63.8755V63.5042H498.768C499.147 62.1075 499.115 60.6625 498.735 59.3304ZM408.213 97.8869L419.065 102.044L416.983 107.478L406.131 103.32L408.213 97.8869ZM391.938 91.6465L402.782 95.8041L400.701 101.237L389.848 97.0796L391.938 91.6465ZM375.647 85.398L386.508 89.5637L384.426 95.0049L373.565 90.8392L375.647 85.398ZM359.365 79.1657L360.486 79.5936H360.494L370.217 83.3233L368.135 88.7564L357.291 84.5988L359.365 79.1657ZM343.082 72.9172L353.942 77.0829L351.861 82.516L341 78.3503L343.082 72.9172ZM424.761 167.791C423.745 168.63 422.51 168.404 421.356 168.404C417.645 168.428 413.949 168.017 410.238 168.049C409.947 168.049 409.1 168.009 408.931 168.219L406.3 174.419C406.212 174.951 406.784 175.282 407.01 175.654C410.343 181.353 406.76 189.128 400.329 189.919L396.19 210.699C395.811 212.329 394.407 213.242 393.027 213.209C390.114 211.522 385.669 210.715 382.941 208.906C382.514 208.632 382.102 207.8 382.038 207.243C381.852 205.734 382.788 204.612 383.587 203.409C385.975 199.784 388.71 196.248 391.188 192.672C392.366 190.976 393.519 189.233 394.657 187.497C390.405 182.128 394.81 172.675 401.596 172.756L403.605 168.025C403.379 167.888 403.129 167.871 402.871 167.847C394.342 167.072 385.055 167.88 376.446 167.234C374.631 167.096 374.348 167.04 372.968 165.805C366.465 159.976 360.486 152.961 354.039 146.995L353.499 146.672L348.746 157.829C351.562 163.956 355.895 169.034 361.027 172.772C368.264 178.043 376.93 181.03 385.967 181.329C387.791 181.386 390.3 180.49 391.099 182.766C391.599 184.203 390.816 186.036 389.493 186.754C388.242 187.424 381.909 186.948 380.335 186.754C366.255 185.002 350.594 175.67 344.389 161.558C343.816 160.251 343.114 158.757 343.647 157.159C345.164 152.622 347.915 147.859 349.561 143.289L349.634 142.724L339.467 132.617C338.2 130.817 339.37 128.031 341.549 127.708L390.486 129.097C402.427 140.278 413.917 152.089 425.625 163.593C426.359 165.054 426.165 166.628 424.761 167.791ZM433.274 113.726L422.422 109.569L424.495 104.127L435.356 108.293L433.274 113.726ZM449.549 119.958L438.704 115.801L440.778 110.368L451.638 114.525L449.549 119.958ZM465.831 126.207L454.987 122.049L457.061 116.608L467.921 120.774L465.831 126.207ZM350.32 133.691L349.012 133.884L368.813 153.453L376.89 161.429L397.32 161.849C397.425 161.607 396.464 161.082 396.255 160.929C391.865 157.909 387.331 155.084 382.982 151.992C382.312 151.516 380.843 150.587 380.384 149.99C379.278 148.537 380.432 145.695 382.199 145.243C383.345 144.944 384.152 145.622 385.047 146.171C393.213 151.193 400.741 157.635 409.084 162.285C411.166 162.019 413.675 162.697 415.684 162.406C415.87 162.382 415.91 162.608 416.031 162.14L388.121 134.692L350.32 133.691ZM401.596 178.592C397.917 177.519 396.69 184.227 400.329 184.171C403.291 184.13 404.178 179.343 401.596 178.592ZM388.71 204.999L391.849 206.331C392.349 204.192 392.817 202.028 393.197 199.873C393.285 199.38 393.527 198.581 393.302 198.169L388.71 204.999Z" fill="white"/>
</svg>
